<svg width="24" height="24" viewBox="0 0 24 24" fill="none" xmlns="http://www.w3.org/2000/svg">
<path d="M4.96 3.055H4.73C4.72 3.055 4.714 3.045 4.709 3.039L4.698 3.022C4.824 2.984 4.916 2.995 4.96 3.055Z" fill="#AE918B"/>
<path d="M4.69799 3.02199L4.70799 3.03899L4.72999 3.04899H4.95999C5.00399 3.04899 5.04799 3.04899 5.08599 3.07199C5.13599 3.11999 5.19065 3.13799 5.24999 3.12599C5.38999 3.19399 5.52499 3.27065 5.65499 3.35599C5.98799 3.61799 6.28299 3.86999 6.52899 4.12099L7.19599 4.79899C7.34999 4.95799 7.51399 5.11099 7.69399 5.27499C7.96699 5.51499 8.26299 5.72399 8.57999 5.88799C8.80999 6.00999 9.05699 6.09799 9.31199 6.14999C9.40597 6.16725 9.50195 6.17096 9.59699 6.16099C9.61042 6.15996 9.6238 6.16348 9.63499 6.17099C9.64522 6.18101 9.6587 6.18704 9.67299 6.18799C9.78299 6.20532 9.88699 6.20532 9.98499 6.18799C10.079 6.17265 10.17 6.16532 10.258 6.16599C10.444 6.17199 10.625 6.12299 10.805 6.11199C10.975 6.09599 11.1553 6.07232 11.346 6.04099L11.401 6.01299H11.423C11.4237 6.02432 11.4327 6.02999 11.45 6.02999C11.565 6.02999 11.68 6.03999 11.8 6.01299C11.8897 5.99191 11.9824 5.9865 12.074 5.99699C12.2313 6.02365 12.3643 6.02532 12.473 6.00199L12.883 6.03499C13.0032 6.07414 13.1317 6.08001 13.255 6.05199C13.38 6.06799 13.512 6.07899 13.637 6.08399L14.031 6.11699C14.275 6.14632 14.5193 6.16832 14.764 6.18299C14.84 6.19899 14.89 6.21599 14.972 6.18799C15.392 6.05799 15.737 5.90399 16.016 5.71799L16.809 5.19799C17.1543 4.96799 17.497 4.81699 17.837 4.74499C18.05 4.70099 18.317 4.70099 18.52 4.80999C18.772 4.97399 18.93 5.19899 19.001 5.49999L19.04 5.71799C19.067 5.88199 19.04 6.04099 19.05 6.20499C19.056 6.28099 19.05 6.36899 19.04 6.44499C19.018 6.55499 19.012 6.66899 19.012 6.78499C19.012 6.95899 18.969 7.13499 18.98 7.30899L19.007 7.77899C19.0117 7.91699 19.0297 8.06299 19.061 8.21699L19.154 8.74199C19.16 8.79599 19.193 8.83499 19.198 8.88399C19.2427 9.04132 19.29 9.19799 19.34 9.35399C19.3847 9.48532 19.443 9.61665 19.515 9.74799L19.663 10.043C19.895 10.515 20.073 11.013 20.193 11.525C20.204 11.623 20.248 11.689 20.264 11.798C20.281 11.902 20.314 11.995 20.319 12.099C20.319 12.241 20.374 12.361 20.385 12.499C20.4057 12.717 20.4183 12.9243 20.423 13.121C20.423 13.1543 20.4397 13.1873 20.473 13.22L20.467 13.526C20.4238 13.742 20.4017 13.9617 20.401 14.182C20.4056 14.2279 20.4022 14.2742 20.391 14.319C20.3433 14.4332 20.3172 14.5553 20.314 14.679C20.3145 14.7288 20.3088 14.7786 20.297 14.827C20.287 14.882 20.275 14.931 20.275 14.98C20.229 15.252 20.1743 15.522 20.111 15.79C19.8186 16.8767 19.2648 17.8754 18.498 18.699C18.334 18.863 18.17 19.038 17.995 19.191C17.2959 19.8105 16.4924 20.3011 15.622 20.64C15.4058 20.7246 15.1826 20.7901 14.955 20.836C14.6697 20.886 14.3837 20.9337 14.097 20.979L13.933 21L12.44 20.995L12.276 20.984C12.1151 20.9322 11.947 20.9062 11.778 20.907C11.7356 20.9053 11.6936 20.8983 11.653 20.886C11.6115 20.876 11.5694 20.8686 11.527 20.864L11.341 20.831C11.2763 20.8168 11.2098 20.8134 11.144 20.821C10.3541 20.6825 9.60079 20.3844 8.92999 19.945C8.2753 19.5509 7.68955 19.0523 7.19599 18.469C6.62888 17.7756 6.16847 17.0014 5.82999 16.172C5.5323 15.4735 5.28174 14.7559 5.07999 14.024C4.9829 13.6703 4.90083 13.3126 4.83399 12.952L4.66999 12.033C4.56122 11.4056 4.43182 10.7819 4.28199 10.163L3.95399 8.90599C3.81613 8.36512 3.705 7.81779 3.62099 7.26599C3.58032 7.03599 3.55099 6.80432 3.53299 6.57099C3.4729 5.57687 3.62563 4.58137 3.98099 3.65099C4.10099 3.35099 4.36399 3.07699 4.69199 3.04999L4.70299 3.03299L4.69799 3.02199Z" fill="#42281F"/>
<path d="M5.25998 3.132C5.38098 3.17 5.47998 3.225 5.57198 3.285C5.88398 3.487 6.17398 3.739 6.46398 4.034C6.51298 4.084 6.57298 4.122 6.61698 4.171C6.88998 4.461 7.23998 4.816 7.44698 5.018C7.76365 5.31866 8.10465 5.58133 8.46998 5.806C8.68465 5.92466 8.91065 6.01566 9.14798 6.079C9.49398 6.161 9.84998 6.185 10.204 6.15C10.5433 6.116 10.8 6.085 10.974 6.057C11.1154 6.0347 11.258 6.02001 11.401 6.013L11.346 6.041C11.1653 6.07266 10.983 6.09436 10.8 6.106C10.625 6.123 10.444 6.172 10.258 6.166C10.17 6.16533 10.079 6.17266 9.98498 6.188C9.88162 6.20432 9.77634 6.20432 9.67298 6.188C9.66109 6.18474 9.6499 6.17932 9.63998 6.172C9.62758 6.16297 9.61219 6.15903 9.59698 6.161C9.50199 6.1713 9.40601 6.16793 9.31198 6.151C9.05656 6.09912 8.81001 6.01053 8.57998 5.888C8.26165 5.71907 7.96428 5.51333 7.69398 5.275C7.52328 5.12375 7.35913 4.96527 7.20198 4.8L6.52898 4.127C6.25536 3.85176 5.96299 3.59581 5.65398 3.361C5.52899 3.27448 5.39762 3.1976 5.26098 3.131" fill="#826158"/>
<path d="M7.86398 5.82699C8.13798 6.60832 8.23465 7.37032 8.15398 8.11299C8.14298 8.19999 8.16998 8.21099 8.23598 8.15599C8.83831 7.60271 9.51564 7.13712 10.248 6.77299C10.4453 6.67966 10.633 6.57032 10.811 6.44499C11.2842 6.35083 11.7668 6.31224 12.249 6.32999C12.282 6.55999 12.15 6.68599 11.943 6.72999C11.341 6.85999 10.778 7.05199 10.286 7.36999C9.89991 7.62899 9.53448 7.91752 9.19298 8.23299C9.10498 8.31499 9.09998 8.41299 9.17598 8.51699C9.21398 8.57199 9.25798 8.59399 9.32398 8.57699L9.66298 8.52299C9.69632 8.51099 9.71098 8.53432 9.70698 8.59299L9.69998 8.57899L9.68998 8.56199C9.68448 8.55707 9.67736 8.55435 9.66998 8.55435C9.6626 8.55435 9.65548 8.55707 9.64998 8.56199L9.63998 8.57299L9.57398 8.72099L9.56398 8.69899C9.56398 8.69232 9.55832 8.68866 9.54698 8.68799H9.53598C9.31698 8.78599 8.61698 9.17999 8.77098 9.47499C8.83611 9.61963 8.94485 9.74026 9.08198 9.81999L9.09898 9.82999C9.10158 9.8347 9.10319 9.83988 9.10374 9.84522C9.10429 9.85057 9.10375 9.85597 9.10216 9.8611C9.10058 9.86623 9.09797 9.87099 9.0945 9.8751C9.09104 9.8792 9.08678 9.88257 9.08198 9.88499C8.91592 9.99617 8.76845 10.1328 8.64498 10.29C8.50157 10.4383 8.36985 10.5974 8.25098 10.766C8.00632 11.11 7.80232 11.427 7.63898 11.717C7.47498 12.001 7.43098 12.357 7.69298 12.597C7.80632 12.707 7.92865 12.7343 8.05998 12.679C8.06498 12.679 8.06998 12.679 8.06998 12.69L8.06498 12.701L8.04898 12.718C7.61219 12.9708 7.24275 13.3251 6.97198 13.751C6.80798 14.008 6.57198 14.44 6.94998 14.631C7.00398 14.659 7.04798 14.642 7.09698 14.621C7.17398 14.577 7.18498 14.588 7.13598 14.664C7.08098 14.746 7.02598 14.839 6.98798 14.938C6.89498 15.178 6.79098 15.413 6.68798 15.648C6.63893 15.7322 6.58378 15.8128 6.52298 15.889C6.43955 15.9953 6.33325 16.0814 6.21198 16.141L5.94398 15.501C6.10798 15.221 6.20598 15.031 6.26098 14.751C6.26098 14.724 6.25498 14.708 6.22798 14.697C6.12998 14.675 6.04198 14.642 6.04798 14.517C6.07465 13.9383 6.22932 13.406 6.51198 12.92L6.69198 12.603C6.70661 12.5513 6.7107 12.4973 6.70398 12.444C6.70398 12.428 6.70398 12.411 6.71398 12.395C7.07398 11.643 7.29998 10.835 7.38198 10.005C7.38198 9.99935 7.38038 9.99382 7.37737 9.98904C7.37436 9.98427 7.37007 9.98043 7.36498 9.97799H7.34998C7.34577 9.97876 7.34191 9.98086 7.33898 9.98399C7.17498 10.257 7.01098 10.531 6.85798 10.804C6.70998 11.077 6.51798 11.28 6.21798 11.28C5.96098 11.28 5.72598 11.143 5.52898 10.984C5.5178 10.9765 5.50441 10.973 5.49098 10.974C5.48753 10.974 5.48414 10.975 5.48117 10.9767C5.47819 10.9785 5.47571 10.981 5.47398 10.984L5.47198 10.992L5.47398 11.001C5.63798 11.247 5.56698 11.542 5.29898 11.646C5.18421 11.683 5.0599 11.6774 4.94898 11.63L4.77498 10.75C4.82898 10.782 4.85098 10.787 4.85698 10.75C4.89165 10.564 4.89698 10.3777 4.87298 10.191C4.8767 10.1795 4.88411 10.1695 4.89405 10.1627C4.90399 10.1558 4.91592 10.1524 4.92798 10.153C5.09198 10.175 5.25598 10.197 5.41998 10.263C5.68798 10.377 6.07598 10.448 6.33298 10.263C6.66098 10.016 6.58998 9.60599 6.43698 9.24599C6.43054 9.23424 6.42861 9.22054 6.43156 9.20746C6.43451 9.19439 6.44212 9.18284 6.45298 9.17499L6.75298 9.14699C6.92898 9.13699 6.98898 8.98299 6.91798 8.84099C6.83706 8.70213 6.73969 8.57354 6.62798 8.45799C6.62396 8.45358 6.62098 8.44833 6.61925 8.44262C6.61752 8.43691 6.61708 8.43089 6.61798 8.42499L6.62298 8.40899L6.63298 8.39899C6.78843 8.30326 6.92318 8.17742 7.02931 8.02888C7.13543 7.88033 7.2108 7.71207 7.25098 7.53399C7.32898 7.19399 7.27798 6.88399 7.09798 6.60399L7.07698 6.54999C7.07401 6.44094 7.04558 6.3341 6.99398 6.23799C6.82998 5.92099 6.64398 5.58199 6.41998 5.22099C6.08355 4.66987 5.68162 4.1615 5.22298 3.70699C5.09698 3.58099 4.89498 3.48299 4.62698 3.40599C4.82898 3.36799 4.98765 3.37332 5.10298 3.42199C5.33765 3.52532 5.55632 3.66399 5.75898 3.83799C6.25598 4.25399 6.72098 4.78399 7.15298 5.20499C7.37198 5.41799 7.61298 5.62499 7.86298 5.82799" fill="#774C46"/>
<path d="M4.62697 3.405C4.89897 3.481 5.09764 3.58133 5.22297 3.706C5.65897 4.13133 6.05997 4.63633 6.42597 5.221C6.42464 5.25233 6.43731 5.28133 6.46397 5.308C6.46798 5.31239 6.4706 5.31786 6.47149 5.32374C6.47238 5.32961 6.4715 5.33562 6.46897 5.341V5.363L6.45897 5.373H6.44197C6.34897 5.275 6.25597 5.188 6.18497 5.073L5.80197 4.526C5.61097 4.258 5.30997 3.892 4.95997 4.029C4.68097 4.138 4.55597 4.433 4.48997 4.718C4.32981 5.42973 4.23277 6.15421 4.19997 6.883C4.17693 7.25431 4.17693 7.62669 4.19997 7.998C4.19437 8.00857 4.18692 8.01806 4.17797 8.026C4.17797 8.026 4.16197 8.026 4.13997 8.004C4.09799 7.89767 4.06521 7.78793 4.04197 7.676C3.93404 7.15399 3.87545 6.62298 3.86697 6.09C3.87886 5.40914 3.98727 4.73341 4.18897 4.083C4.29297 3.739 4.43497 3.515 4.62697 3.405Z" fill="#E6D1CC"/>
<path d="M6.41998 5.22C6.63898 5.581 6.83598 5.92 6.99398 6.238C7.04655 6.33332 7.07472 6.44016 7.07598 6.549C7.07098 6.571 7.05998 6.577 7.04398 6.577C7.03298 6.577 7.02698 6.566 7.01598 6.549C6.81363 6.19723 6.51628 5.90957 6.15798 5.719C6.04798 5.663 5.94998 5.663 5.87298 5.74C5.81598 5.79998 5.77474 5.87316 5.75298 5.953C5.5734 6.51551 5.40768 7.08234 5.25598 7.653C5.11332 8.185 4.99832 8.76833 4.91098 9.403C4.78958 9.26258 4.68488 9.10855 4.59898 8.944L4.17298 8.124L4.13998 8.004L4.17798 8.026C4.18909 8.01863 4.19861 8.00911 4.20598 7.998C4.15906 6.897 4.25452 5.79455 4.48998 4.718C4.55598 4.433 4.68098 4.138 4.95998 4.028C5.30498 3.892 5.61098 4.258 5.80198 4.521L6.18498 5.068C6.25598 5.188 6.34898 5.275 6.44198 5.374C6.44451 5.3751 6.44723 5.37567 6.44998 5.37567C6.45274 5.37567 6.45546 5.3751 6.45798 5.374L6.46398 5.363L6.46898 5.341C6.47151 5.33562 6.47239 5.32962 6.4715 5.32374C6.47061 5.31787 6.46799 5.31239 6.46398 5.308C6.44004 5.28471 6.42455 5.25409 6.41998 5.221" fill="#C98C89"/>
<path d="M18.52 4.81C18.668 4.88666 18.783 4.99066 18.865 5.122C18.9837 5.32866 19.0567 5.55466 19.084 5.8C19.094 6.003 19.094 6.2 19.073 6.402L19.023 7.025C18.9862 7.80066 19.0979 8.57622 19.352 9.31C19.4253 9.508 19.5127 9.69966 19.614 9.885C20.034 10.697 20.3 11.579 20.401 12.487C20.401 12.498 20.412 12.509 20.423 12.52C20.455 12.752 20.4733 12.9853 20.478 13.22C20.4407 13.1867 20.4223 13.154 20.423 13.122C20.4183 12.9156 20.4056 12.7094 20.385 12.504C20.375 12.362 20.325 12.241 20.319 12.104C20.314 11.995 20.281 11.902 20.265 11.793C20.248 11.694 20.205 11.629 20.194 11.525L20.166 11.415L20.073 11.088C19.9342 10.6232 19.7476 10.1742 19.516 9.748C19.4468 9.62174 19.3883 9.48995 19.341 9.354C19.291 9.19866 19.2433 9.042 19.198 8.884C19.193 8.834 19.16 8.791 19.155 8.742L19.062 8.217C19.033 8.07288 19.0146 7.92682 19.007 7.78L18.98 7.31C18.969 7.134 19.018 6.96 19.013 6.784C19.013 6.67 19.018 6.56 19.04 6.445C19.0513 6.36233 19.0547 6.28233 19.05 6.205C19.045 6.041 19.067 5.877 19.04 5.713L19.002 5.494C18.9716 5.35363 18.9133 5.22082 18.8304 5.10348C18.7476 4.98614 18.6421 4.88567 18.52 4.81Z" fill="#826158"/>
<path d="M18.815 8.578L18.805 8.6C18.8011 8.60308 18.7965 8.60516 18.7916 8.60603C18.7867 8.6069 18.7817 8.60655 18.777 8.605L18.766 8.6L18.76 8.589C18.5687 8.11443 18.4563 7.61182 18.427 7.101C18.405 6.773 18.476 6.445 18.503 6.117C18.5146 6.00134 18.5038 5.88452 18.471 5.773C18.345 5.352 17.951 5.335 17.607 5.445C17.3503 5.527 17.086 5.63067 16.814 5.756L16.885 5.586C17.1801 5.35246 17.5207 5.18317 17.885 5.089C18.0194 5.04357 18.1645 5.04009 18.301 5.079C18.569 5.16 18.711 5.483 18.739 5.745C18.766 5.965 18.749 6.281 18.722 6.565C18.6571 7.23701 18.6884 7.91483 18.815 8.578Z" fill="#E6D1CC"/>
<path d="M18.815 8.57799V8.63299L18.645 8.97699C18.5743 8.85386 18.5125 8.72587 18.46 8.59399C18.246 7.97932 18.0307 7.36532 17.814 6.75199C17.7719 6.61465 17.7074 6.48523 17.623 6.36899C17.437 6.12299 17.196 6.00899 16.913 6.12899C16.7806 6.18846 16.6669 6.28283 16.584 6.40199C16.562 6.37999 16.546 6.35799 16.546 6.33599C16.562 6.22599 16.606 6.10099 16.677 5.97599C16.7423 5.85599 16.788 5.78266 16.814 5.75599C17.0867 5.62999 17.351 5.52632 17.607 5.44499C17.951 5.33499 18.345 5.35199 18.47 5.77299C18.503 5.88299 18.514 5.99199 18.503 6.11199C18.476 6.43999 18.405 6.77399 18.427 7.10199C18.46 7.61899 18.578 8.12699 18.777 8.60499C18.7812 8.6071 18.7858 8.6082 18.7905 8.6082C18.7952 8.6082 18.7998 8.6071 18.804 8.60499L18.815 8.57799Z" fill="#C98C89"/>
<path d="M16.885 5.586L16.815 5.75C16.787 5.783 16.743 5.86 16.677 5.969C16.6141 6.08313 16.5702 6.20675 16.547 6.335L16.437 6.521C16.393 6.603 16.344 6.805 16.295 7.139C16.273 7.265 16.295 7.379 16.36 7.494C16.366 7.5 16.371 7.511 16.366 7.522C16.366 7.53133 16.364 7.54033 16.36 7.549L16.322 7.559C15.866 7.19833 15.383 6.87767 14.873 6.597C14.9281 6.55839 14.9921 6.53431 15.059 6.527C15.353 6.635 15.626 6.797 15.863 7.002C15.8711 7.00615 15.8803 7.00742 15.8892 7.0056C15.8981 7.00378 15.9062 6.99899 15.912 6.992L15.917 6.975L16.262 5.996L16.885 5.586Z" fill="#774C46"/>
<path d="M7.07598 6.55L7.09798 6.60399C7.06998 6.86099 7.05898 7.14 6.99398 7.386C6.96068 7.50006 6.924 7.61311 6.88398 7.72499C6.87375 7.73477 6.86014 7.74023 6.84598 7.74023C6.83182 7.74023 6.81821 7.73477 6.80798 7.72499C6.69959 7.61442 6.61576 7.4822 6.56198 7.33699C6.53498 7.25499 6.50698 7.25999 6.48498 7.33699C6.34405 7.79722 6.31592 8.28461 6.40298 8.758C6.40067 8.76565 6.39657 8.77265 6.391 8.77839C6.38543 8.78413 6.37856 8.78846 6.37098 8.791H6.34898L5.87898 8.68099C5.87514 8.67963 5.87097 8.67948 5.86704 8.68055C5.86311 8.68162 5.8596 8.68387 5.85698 8.687C5.85328 8.69191 5.85119 8.69785 5.85098 8.704C5.84742 8.72582 5.84948 8.74819 5.85698 8.76899C5.95698 8.95899 5.99498 9.17499 5.96598 9.38699C5.96302 9.39294 5.95818 9.39773 5.95221 9.40062C5.94624 9.40352 5.93948 9.40435 5.93298 9.40299C5.76663 9.3219 5.60257 9.2362 5.44098 9.14599C5.43201 9.14705 5.4234 9.15012 5.41578 9.15496C5.40816 9.15981 5.40173 9.16632 5.39698 9.17399C5.39298 9.41266 5.40965 9.64933 5.44698 9.88399C5.46298 9.96099 5.43598 9.977 5.37498 9.928C5.19326 9.77891 5.03661 9.60166 4.91098 9.40299C4.99765 8.76833 5.11231 8.18499 5.25498 7.65299C5.38098 7.17799 5.54498 6.61499 5.75798 5.95299C5.77932 5.87356 5.81676 5.79935 5.86798 5.735C5.94998 5.663 6.04198 5.65799 6.15798 5.71799C6.52998 5.91199 6.83798 6.21 7.04298 6.577C7.05898 6.577 7.06998 6.57099 7.07598 6.54899" fill="#BC7573"/>
<path d="M7.86298 5.827C8.15298 6.007 8.33898 6.122 8.43198 6.172C8.96626 6.45087 9.57315 6.5594 10.171 6.483L10.816 6.44C10.636 6.56533 10.4463 6.67466 10.247 6.768C9.51433 7.13367 8.83698 7.60095 8.23498 8.156C8.16898 8.211 8.14798 8.2 8.15298 8.113C8.22849 7.3389 8.12939 6.55772 7.86298 5.827ZM16.262 5.997L15.922 6.975L15.912 6.992L15.895 7.002C15.8899 7.0042 15.8845 7.00534 15.879 7.00534C15.8735 7.00534 15.868 7.0042 15.863 7.002C15.6273 6.79695 15.3567 6.63605 15.064 6.527C15.4858 6.40193 15.89 6.22384 16.267 5.997H16.262Z" fill="#683B36"/>
<path d="M12.889 6.034L13.255 6.051C13.1317 6.07902 13.0032 6.07315 12.883 6.034H12.889Z" fill="#826158"/>
<path d="M18.646 8.977C18.6308 9.03995 18.6006 9.09829 18.558 9.147C18.5193 9.185 18.4883 9.17933 18.465 9.13L18.181 8.49C18.175 8.47539 18.1638 8.46347 18.1497 8.45647C18.1355 8.44948 18.1192 8.44789 18.104 8.452C18.0924 8.45567 18.0815 8.46143 18.072 8.469C18.047 8.49347 18.0195 8.51526 17.99 8.534C17.9367 8.56133 17.9183 8.545 17.935 8.485L18.061 8.058V8.048C18.0594 8.04072 18.0551 8.0343 18.049 8.03L18.039 8.026H18.022C17.804 8.108 17.574 8.064 17.344 8.026C17.309 8.02021 17.2769 8.00324 17.2523 7.97764C17.2278 7.95204 17.2123 7.91919 17.208 7.884C17.1813 7.714 17.154 7.54433 17.126 7.375C17.1237 7.36884 17.1199 7.36335 17.115 7.359C17.1099 7.35633 17.1044 7.35478 17.0987 7.35443C17.093 7.35409 17.0873 7.35496 17.082 7.357C17.0769 7.35912 17.0724 7.36226 17.0686 7.36622C17.0648 7.37017 17.0619 7.37486 17.06 7.38L16.962 7.594L16.945 7.61C16.9385 7.6143 16.9308 7.61659 16.923 7.61659C16.9152 7.61659 16.9075 7.6143 16.901 7.61C16.7251 7.22701 16.6178 6.8161 16.584 6.396C16.6673 6.27882 16.7806 6.18624 16.912 6.128C17.197 6.008 17.437 6.128 17.623 6.363C17.694 6.462 17.76 6.588 17.814 6.752L18.46 8.594C18.486 8.67 18.548 8.79767 18.646 8.977Z" fill="#BC7573"/>
<path d="M12.249 6.32999C13.2756 6.39666 14.0866 6.46033 14.682 6.52099C14.737 6.52699 14.792 6.55399 14.873 6.59799C15.3836 6.87799 15.867 7.19866 16.323 7.55999C16.389 7.63199 16.458 7.69599 16.53 7.75199C16.59 7.79533 16.5846 7.81699 16.514 7.81699L16.459 7.82799L16.257 7.84999C16.2438 7.85338 16.2322 7.86113 16.224 7.87199C16.1773 7.92878 16.1491 7.99852 16.1432 8.07182C16.1373 8.14512 16.1539 8.21846 16.191 8.28199L16.194 8.29299C16.194 8.29699 16.193 8.30033 16.191 8.303C16.1902 8.30556 16.1889 8.30795 16.1872 8.31001C16.1855 8.31207 16.1834 8.31377 16.181 8.31499C16.169 8.31499 16.158 8.31499 16.147 8.30399C16.017 8.19399 15.923 7.97599 16.093 7.86699C16.147 7.82799 16.147 7.81199 16.082 7.82799C15.9749 7.84645 15.8735 7.88958 15.786 7.95399C15.748 7.98733 15.748 8.01999 15.786 8.05199L16.131 8.33199C16.514 8.57699 16.781 8.73599 16.941 8.80699C17.121 8.88833 17.312 8.93399 17.514 8.94399C17.542 8.94399 17.564 8.938 17.574 8.911C17.613 8.845 17.662 8.78499 17.662 8.70299C17.6629 8.60721 17.6442 8.51225 17.607 8.42399V8.40799C17.618 8.39099 17.624 8.391 17.635 8.397C17.6993 8.45308 17.7482 8.52468 17.777 8.60499C17.81 8.68099 17.831 8.856 17.76 8.911C17.7201 8.93801 17.6718 8.94973 17.624 8.94399C17.6066 8.94266 17.603 8.94999 17.613 8.96599C17.6303 8.98733 17.645 8.99799 17.657 8.99799C17.766 9.00899 17.875 9.031 17.985 9.053L18.477 9.529L18.991 10.065C18.9975 10.0736 19.001 10.0842 19.001 10.095C19.001 10.1058 18.9975 10.1163 18.991 10.125L18.876 10.261C18.8671 10.2709 18.8622 10.2837 18.8622 10.297C18.8622 10.3103 18.8671 10.3231 18.876 10.333C19.149 10.633 19.39 10.973 19.586 11.333C19.586 11.371 19.598 11.404 19.619 11.443V11.453L19.616 11.463L19.609 11.47H19.581C19.565 11.47 19.548 11.464 19.543 11.442L19.472 11.246C19.4683 11.2343 19.4605 11.2243 19.45 11.218C19.4405 11.2109 19.4288 11.2073 19.417 11.208C19.3096 11.2123 19.2025 11.194 19.1026 11.1544C19.0027 11.1148 18.9123 11.0547 18.837 10.978C18.6452 10.7922 18.4468 10.6134 18.242 10.442C18.1141 10.3238 17.9576 10.2411 17.788 10.202C17.514 10.015 17.296 9.846 17.11 9.704C16.914 9.54381 16.7296 9.37005 16.558 9.18399C16.667 9.01399 16.634 8.74699 16.394 8.74099C16.268 8.61599 16.071 8.57699 15.901 8.56099C15.535 8.39699 15.136 8.32599 14.726 8.28199C14.468 8.25533 14.2236 8.28099 13.993 8.35899C13.9823 8.36232 13.9723 8.36787 13.9639 8.37528C13.9555 8.38269 13.9487 8.39179 13.944 8.402C13.9359 8.4209 13.9338 8.44185 13.938 8.46199C13.96 8.54999 13.982 8.637 14.015 8.725C14.07 8.873 13.917 8.94899 13.807 8.99799C13.304 9.20099 12.741 9.24999 12.211 9.32599C11.765 9.37706 11.3317 9.50673 10.931 9.70899C10.456 9.93899 9.96898 10.19 9.45498 10.283C9.26395 10.3174 9.06712 10.2988 8.88598 10.229C8.81598 10.201 8.76098 10.218 8.71098 10.283C8.70215 10.2946 8.69089 10.3042 8.67798 10.311C8.65098 10.327 8.63498 10.321 8.63998 10.289C8.76854 10.1259 8.92171 9.98391 9.09398 9.86799V9.85C9.09414 9.84362 9.09277 9.83729 9.08998 9.83155C9.0872 9.82581 9.08308 9.82082 9.07798 9.817C8.9404 9.73647 8.83001 9.61668 8.76098 9.47299C8.61298 9.17799 9.30698 8.78399 9.53098 8.68599H9.55298C9.55298 8.68599 9.56398 8.68599 9.56398 8.69599L9.57498 8.718C9.53098 8.773 9.52098 8.82799 9.55298 8.87199C9.55886 8.88192 9.56683 8.89046 9.57632 8.89702C9.58581 8.90357 9.59661 8.908 9.60798 8.90999C9.82698 8.94299 10.045 8.90999 10.258 8.89299C10.384 8.88299 10.51 8.86099 10.641 8.83899C11.0768 8.75164 11.5075 8.64014 11.931 8.50499C12.096 8.45099 12.189 8.25899 12.025 8.12199C11.9621 8.07277 11.8963 8.02735 11.828 7.98599C11.794 7.96533 11.785 7.97433 11.801 8.01299C11.866 8.18799 11.811 8.29199 11.691 8.41299C11.6616 8.44339 11.6262 8.46725 11.587 8.48299C11.5503 8.49899 11.5433 8.49 11.566 8.456C11.675 8.297 11.713 8.17199 11.691 8.07299C11.68 8.02443 11.6557 7.97986 11.621 7.94421C11.5862 7.90856 11.5422 7.88322 11.494 7.87099C11.2584 7.79042 11.0064 7.77017 10.7609 7.81209C10.5155 7.85402 10.2845 7.95678 10.089 8.11099C9.96999 8.1732 9.87141 8.26832 9.80498 8.38499C9.74788 8.41932 9.69933 8.46617 9.66298 8.522L9.32298 8.57599C9.25798 8.59299 9.21398 8.56599 9.17598 8.51599C9.09898 8.40599 9.10498 8.314 9.19798 8.232C9.53784 7.91639 9.90159 7.62753 10.286 7.36799C10.778 7.05099 11.346 6.85899 11.943 6.72799C12.15 6.68399 12.282 6.56499 12.249 6.32999Z" fill="#FFF5F6"/>
<path d="M16.547 6.336C16.547 6.358 16.563 6.38 16.585 6.396C16.619 6.816 16.726 7.226 16.902 7.61C16.9085 7.6143 16.9162 7.61659 16.924 7.61659C16.9318 7.61659 16.9394 7.6143 16.946 7.61C16.956 7.61 16.962 7.599 16.962 7.594L17.06 7.374L17.071 7.358C17.0775 7.3537 17.0852 7.35141 17.093 7.35141C17.1008 7.35141 17.1084 7.3537 17.115 7.358L17.125 7.375L17.137 7.408L17.208 7.883C17.208 7.922 17.23 7.954 17.252 7.976C17.2773 8.00252 17.3095 8.02154 17.345 8.031C17.575 8.064 17.799 8.107 18.028 8.025C18.0347 8.02335 18.0417 8.02405 18.048 8.027C18.054 8.03033 18.0583 8.03533 18.061 8.042V8.058L17.935 8.485C17.9176 8.545 17.936 8.56133 17.99 8.534L18.072 8.468C18.0801 8.4609 18.0897 8.45576 18.1001 8.45298C18.1105 8.45021 18.1214 8.44987 18.132 8.452C18.1427 8.454 18.1528 8.45848 18.1615 8.46508C18.1702 8.47167 18.1772 8.48021 18.182 8.49L18.466 9.13C18.487 9.185 18.52 9.185 18.559 9.146C18.6004 9.09891 18.6302 9.04273 18.646 8.982L18.821 8.632L18.941 9.125C18.854 9.289 18.744 9.425 18.624 9.524C18.6101 9.53606 18.5921 9.54218 18.5737 9.54106C18.5554 9.53994 18.5383 9.53166 18.526 9.518C18.5046 9.49733 18.488 9.501 18.476 9.529L17.984 9.059C18.006 9.026 17.984 8.982 17.941 8.922C17.9301 8.90939 17.9225 8.89427 17.919 8.878C17.9016 8.77749 17.8703 8.67989 17.826 8.588L17.81 8.578C17.788 8.572 17.777 8.578 17.777 8.605C17.7461 8.52552 17.6971 8.45431 17.634 8.397C17.6246 8.39233 17.6176 8.396 17.613 8.408V8.425L17.596 8.419C17.58 8.419 17.574 8.425 17.569 8.441L17.558 8.501C17.5693 8.43567 17.5566 8.381 17.52 8.337C17.4501 8.26439 17.3824 8.18969 17.317 8.113C17.23 8.02405 17.1235 7.9566 17.006 7.916C16.8819 7.86924 16.7491 7.85046 16.617 7.861C16.567 7.83972 16.5133 7.82883 16.459 7.829L16.514 7.818C16.584 7.818 16.5893 7.796 16.53 7.752C16.4544 7.6955 16.3847 7.63151 16.322 7.561C16.344 7.561 16.355 7.561 16.36 7.55C16.3633 7.541 16.3653 7.53157 16.366 7.522V7.495C16.3014 7.38867 16.2762 7.263 16.295 7.14C16.35 6.812 16.393 6.604 16.437 6.522L16.547 6.336ZM7.09797 6.604C7.27797 6.884 7.32897 7.194 7.25097 7.534C7.2106 7.71461 7.13405 7.88517 7.02594 8.03539C6.91784 8.1856 6.78042 8.31236 6.62197 8.408C6.61709 8.41576 6.61503 8.42496 6.61612 8.43406C6.61721 8.44316 6.6214 8.45161 6.62797 8.458C6.72597 8.567 6.84697 8.703 6.91797 8.84C6.98797 8.988 6.92797 9.135 6.75397 9.146C6.65397 9.154 6.55364 9.16333 6.45297 9.174C6.44133 9.18091 6.43265 9.19188 6.42859 9.20479C6.42454 9.21771 6.42538 9.23167 6.43097 9.244C6.58997 9.6 6.66097 10.016 6.33297 10.256C6.07597 10.448 5.68697 10.376 5.41997 10.256C5.25472 10.197 5.08134 10.1639 4.90597 10.158C4.89855 10.161 4.8918 10.1655 4.88613 10.1712C4.88047 10.1768 4.87599 10.1836 4.87297 10.191C4.89897 10.377 4.89531 10.563 4.86197 10.749C4.85097 10.787 4.82397 10.781 4.77397 10.749L4.62697 10.092C4.5779 9.87396 4.52322 9.65722 4.46297 9.442C4.37497 9.125 4.29897 8.802 4.22297 8.485C4.19536 8.36644 4.17862 8.2456 4.17297 8.124L4.59897 8.944C4.67031 9.086 4.77431 9.23933 4.91097 9.404C5.02097 9.578 5.17297 9.754 5.37597 9.928C5.43597 9.978 5.46297 9.961 5.44597 9.885C5.40885 9.6499 5.39279 9.41195 5.39797 9.174C5.40411 9.16556 5.41154 9.15814 5.41997 9.152C5.42835 9.14778 5.4376 9.14558 5.44697 9.14558C5.45635 9.14558 5.4656 9.14778 5.47397 9.152C5.62464 9.24 5.77797 9.32367 5.93397 9.403C5.93816 9.40511 5.94279 9.40621 5.94747 9.40621C5.95216 9.40621 5.95679 9.40511 5.96097 9.403L5.97097 9.387V9.376C5.99959 9.16917 5.9614 8.9586 5.86197 8.775C5.84766 8.75391 5.84194 8.72816 5.84597 8.703L5.85097 8.698C5.85535 8.69284 5.86134 8.68932 5.86797 8.688H5.87797L6.34897 8.796C6.35706 8.79829 6.36566 8.79798 6.37356 8.79511C6.38146 8.79224 6.38825 8.78695 6.39297 8.78C6.39821 8.77291 6.40182 8.76476 6.40355 8.75611C6.40528 8.74747 6.40508 8.73856 6.40297 8.73C6.30497 8.293 6.37097 7.78 6.48597 7.342C6.50797 7.26 6.53497 7.255 6.56197 7.337C6.61223 7.48218 6.69659 7.61318 6.80797 7.719C6.81825 7.72908 6.83208 7.73472 6.84647 7.73472C6.86087 7.73472 6.87469 7.72908 6.88497 7.719C6.92497 7.609 6.96164 7.498 6.99497 7.386C7.05997 7.14 7.07097 6.861 7.09797 6.604Z" fill="#826158"/>
<path d="M11.691 8.07499C11.6795 8.10631 11.6761 8.14 11.681 8.17299V8.18399H11.664C11.6573 8.18399 11.6536 8.17866 11.653 8.16799C11.653 8.15099 11.653 8.13999 11.636 8.13499C11.615 8.12399 11.604 8.11299 11.615 8.08499C11.615 8.07499 11.615 8.06899 11.604 8.06399C11.5978 8.06138 11.5912 8.06003 11.5845 8.06003C11.5778 8.06003 11.5711 8.06138 11.565 8.06399C11.5312 8.07486 11.4948 8.07486 11.461 8.06399C11.4399 8.02626 11.4102 7.99413 11.3741 7.97029C11.3381 7.94645 11.2969 7.9316 11.254 7.92699L10.914 7.87699C10.8386 7.86699 10.777 7.89466 10.729 7.95999C10.7181 7.97401 10.7122 7.99125 10.7122 8.00899C10.7122 8.02673 10.7181 8.04397 10.729 8.05799C10.7471 8.0835 10.7707 8.10465 10.798 8.11987C10.8254 8.1351 10.8557 8.14402 10.887 8.14599C11.0363 8.17399 11.186 8.20132 11.336 8.22799L11.341 8.23799C11.3432 8.24231 11.3444 8.24711 11.3444 8.25199C11.3444 8.25687 11.3432 8.26168 11.341 8.26599C11.21 8.44599 11.002 8.62599 10.783 8.67599C10.565 8.71999 10.078 8.71399 10.078 8.35399L10.089 8.11299C10.2845 7.95878 10.5155 7.85602 10.7609 7.81409C11.0063 7.77217 11.2584 7.79242 11.494 7.87299C11.5418 7.88621 11.5852 7.91187 11.6198 7.94736C11.6544 7.98285 11.679 8.0269 11.691 8.07499ZM16.147 8.30499L16.131 8.33199L15.786 8.05799C15.748 8.01999 15.748 7.98799 15.786 7.94799C15.8756 7.8885 15.9762 7.84769 16.082 7.82799C16.1466 7.81732 16.152 7.82832 16.098 7.86099C15.923 7.97099 16.016 8.19499 16.148 8.30399M16.613 7.86599C16.7464 7.85092 16.8815 7.86807 17.007 7.91599C17.127 7.95866 17.2306 8.02399 17.318 8.11199L17.236 8.13399C17.2152 8.13982 17.1972 8.15292 17.1853 8.17091C17.1733 8.1889 17.1683 8.21058 17.171 8.23199C17.171 8.24932 17.1763 8.26399 17.187 8.27599C17.264 8.39099 17.367 8.49499 17.487 8.57099C17.4287 8.62399 17.3588 8.66249 17.2828 8.68334C17.2069 8.7042 17.1271 8.70682 17.05 8.69099C16.9428 8.66781 16.837 8.63876 16.733 8.60399C16.6633 8.561 16.5991 8.50962 16.542 8.45099C16.323 8.24899 16.323 7.99099 16.613 7.86599Z" fill="#010101"/>
<path d="M11.46 8.05899C11.4986 8.14099 11.488 8.19566 11.428 8.22299C11.2474 8.19938 11.067 8.17371 10.887 8.14599C10.825 8.1379 10.7682 8.10686 10.728 8.05899C10.7169 8.04489 10.7108 8.02745 10.7108 8.00949C10.7108 7.99154 10.7169 7.9741 10.728 7.95999C10.7766 7.89466 10.8386 7.86733 10.914 7.87799L11.254 7.92799C11.342 7.93866 11.411 7.98199 11.461 8.05799M17.083 8.02999L17.093 8.03599C17.0961 8.03968 17.0982 8.04406 17.0993 8.04876C17.1003 8.05346 17.1002 8.05834 17.099 8.06299V8.07999C17.088 8.10851 17.0665 8.13176 17.039 8.14499C17.0244 8.15179 17.0085 8.15531 16.9925 8.15531C16.9764 8.15531 16.9605 8.15179 16.946 8.14499H16.93C16.9152 8.13907 16.9018 8.13028 16.8905 8.11912C16.8791 8.10796 16.8701 8.09466 16.864 8.07999C16.8575 8.0629 16.8546 8.04462 16.8557 8.02635C16.8567 8.00809 16.8616 7.99024 16.87 7.97399L16.88 7.96399C16.8843 7.96172 16.8891 7.96053 16.894 7.96053C16.8989 7.96053 16.9037 7.96172 16.908 7.96399L17.083 8.02999ZM10.499 7.97599C10.508 7.97262 10.5179 7.97262 10.527 7.97599C10.537 7.97599 10.549 7.98599 10.554 7.99199L10.565 8.00899C10.5856 8.04233 10.593 8.07866 10.587 8.11799C10.5856 8.13866 10.5783 8.15699 10.565 8.17299C10.556 8.18889 10.5429 8.20203 10.527 8.21099L10.516 8.21599C10.5012 8.22678 10.4843 8.23432 10.4663 8.23811C10.4484 8.2419 10.4299 8.24186 10.412 8.23799C10.3755 8.22818 10.3441 8.20497 10.324 8.17299L10.314 8.15599L10.308 8.13999C10.3062 8.13126 10.3074 8.12218 10.3114 8.11421C10.3154 8.10624 10.3219 8.09983 10.33 8.09599L10.494 7.98099L10.499 7.97599ZM17.318 8.11199C17.378 8.18899 17.449 8.26599 17.52 8.33699C17.553 8.37999 17.57 8.43499 17.558 8.50099C17.5426 8.56499 17.5193 8.58833 17.488 8.57099C17.371 8.49119 17.2691 8.39131 17.187 8.27599C17.1787 8.26328 17.1733 8.24884 17.1714 8.23376C17.1695 8.21869 17.1711 8.20338 17.176 8.18899L17.197 8.15599C17.2081 8.14581 17.2215 8.13828 17.236 8.13399L17.318 8.11199Z" fill="#FFF5F6"/>
<path d="M15.895 8.562C15.709 8.595 15.551 8.56199 15.36 8.55099C15.1131 8.5341 14.868 8.49732 14.627 8.44099C14.5133 8.41723 14.3952 8.42696 14.287 8.46899C14.195 8.51899 14.157 8.58399 14.184 8.67099C14.239 8.86299 14.424 8.86799 14.572 8.94499C14.5151 8.98271 14.4522 9.01044 14.386 9.027C14.2753 9.053 14.2116 9.071 14.195 9.081C13.708 9.256 13.227 9.44199 12.74 9.60099C12.16 9.79199 11.581 9.96699 11.024 10.224C10.3794 10.5024 9.8238 10.9526 9.41782 11.5254C9.01183 12.0982 8.77112 12.7716 8.72198 13.472C8.62498 14.31 8.75198 15.159 9.08798 15.932C9.38798 16.6 9.83698 17.189 10.4 17.655C10.8803 18.0623 11.4283 18.3825 12.019 18.601C13.0956 19.0117 14.189 19.121 15.299 18.929C16.085 18.8067 16.8277 18.489 17.459 18.005C18.2788 17.3667 18.8929 16.5015 19.225 15.517C19.4832 14.7991 19.5948 14.0367 19.553 13.275C19.5215 12.6374 19.3111 12.0216 18.946 11.498C18.7418 11.1943 18.5072 10.9122 18.246 10.656C18.006 10.4253 17.853 10.274 17.787 10.202C17.935 10.235 18.087 10.312 18.241 10.442C18.443 10.6073 18.6416 10.7863 18.837 10.979C19.001 11.143 19.197 11.214 19.417 11.209C19.4283 11.209 19.439 11.2123 19.449 11.219C19.4596 11.2257 19.467 11.235 19.471 11.247L19.542 11.444C19.548 11.465 19.564 11.471 19.58 11.471H19.611L19.619 11.465V11.444C19.5989 11.4107 19.5875 11.3729 19.586 11.334L19.986 12.176C20.0393 12.3167 20.0736 12.45 20.089 12.576C20.111 12.789 20.127 13.046 20.133 13.363C20.138 13.499 20.111 13.642 20.106 13.783C20.084 13.86 20.051 13.931 20.018 14.003C19.9819 14.0675 19.9562 14.1374 19.942 14.21C19.8251 14.7979 19.6223 15.3653 19.34 15.894C18.8115 16.8655 18.124 17.7417 17.306 18.486C16.8149 18.9522 16.2321 19.3112 15.5948 19.54C14.9575 19.7688 14.2795 19.8624 13.604 19.815C12.8953 19.8057 12.1972 19.6412 11.559 19.333C11.139 19.131 10.723 18.885 10.259 18.787C9.93918 18.7207 9.61812 18.6607 9.29598 18.607C9.02318 18.5614 8.758 18.4783 8.50798 18.36C7.99976 18.0907 7.59166 17.6651 7.34398 17.146C7.14324 16.7548 6.97145 16.3493 6.82998 15.933C6.79485 15.8313 6.74499 15.7352 6.68198 15.648C6.79064 15.414 6.89064 15.1773 6.98198 14.938C7.02131 14.838 7.07064 14.7467 7.12998 14.664C7.18498 14.588 7.16898 14.576 7.09198 14.62C7.04298 14.642 6.99398 14.659 6.94498 14.631C6.56198 14.44 6.80198 14.008 6.96598 13.751C7.23797 13.3155 7.61389 12.9543 8.05998 12.7V12.69C8.06498 12.678 8.05998 12.678 8.05498 12.678C7.92298 12.733 7.80298 12.7 7.68798 12.596C7.42598 12.356 7.46898 12 7.63398 11.716C7.79798 11.426 7.99998 11.114 8.24598 10.764C8.3674 10.5977 8.49899 10.4391 8.63998 10.289C8.63864 10.321 8.65131 10.3283 8.67798 10.311C8.69034 10.3059 8.70156 10.2985 8.71098 10.289C8.75998 10.218 8.81998 10.201 8.88598 10.229C9.07198 10.294 9.25698 10.322 9.45398 10.283C9.96798 10.19 10.454 9.93899 10.931 9.70899C11.3314 9.50685 11.7644 9.37718 12.21 9.326C12.74 9.25 13.304 9.201 13.807 8.998C13.916 8.949 14.069 8.873 14.014 8.725C13.9847 8.63853 13.9593 8.55077 13.938 8.46199L13.943 8.402C13.9543 8.38242 13.9719 8.36726 13.993 8.359C14.2236 8.27566 14.4676 8.24999 14.725 8.28199C15.135 8.32599 15.535 8.39199 15.895 8.56099" fill="#E6D1CC"/>
<path d="M15.896 8.56199C16.071 8.58399 16.268 8.61699 16.394 8.74199V8.78599C16.377 8.76399 16.355 8.75299 16.339 8.75899L16.328 8.76799L16.322 8.78099C16.284 8.97799 16.077 8.96099 15.945 8.90099C15.819 8.84599 15.562 8.83499 15.535 9.03199C15.4781 9.03246 15.4219 9.01944 15.371 8.99399C15.393 8.85199 15.114 8.75399 15.016 8.75399C14.824 8.75399 14.666 8.74199 14.524 8.71499C14.414 8.69299 14.332 8.61099 14.289 8.46899C14.396 8.42462 14.5143 8.41517 14.627 8.44199C14.868 8.49099 15.109 8.53999 15.36 8.55099C15.552 8.56199 15.71 8.59499 15.896 8.56199Z" fill="#C98C89"/>
<path d="M14.288 8.468C14.3327 8.61 14.4127 8.692 14.528 8.714C14.666 8.74067 14.8283 8.75334 15.015 8.752C15.114 8.752 15.392 8.851 15.37 8.992C15.327 8.982 15.3 9.004 15.278 9.058C15.2713 8.98733 15.2567 8.949 15.234 8.943C15.157 8.911 15.13 8.938 15.163 9.02C15.1945 9.09793 15.2058 9.18253 15.196 9.266L15.19 9.282L15.174 9.293C15.1689 9.29362 15.1638 9.29293 15.1591 9.291C15.1543 9.28908 15.1502 9.28598 15.147 9.282C15.0566 9.16274 14.9326 9.07324 14.791 9.025L14.572 8.949C14.425 8.867 14.244 8.861 14.19 8.676C14.1567 8.58267 14.1893 8.51334 14.288 8.468Z" fill="#BC7573"/>
<path d="M9.78799 8.56099C9.80999 8.72499 9.89799 8.74699 10.007 8.80699C10.023 8.81299 10.023 8.82899 10.017 8.84599C10.012 8.86199 9.99599 8.86799 9.97899 8.86799C9.82099 8.83999 9.73299 8.75799 9.70599 8.60499L9.72199 8.53399C9.72799 8.52299 9.74399 8.51799 9.75499 8.51799C9.76599 8.51799 9.77699 8.52799 9.77699 8.53899L9.78799 8.56099Z" fill="#FFF5F6"/>
<path d="M17.99 9.06C17.8825 9.0309 17.7728 9.01083 17.662 9C17.6453 9 17.6287 8.98867 17.612 8.966C17.6027 8.95067 17.6067 8.94333 17.624 8.944C17.6717 8.95003 17.72 8.93867 17.76 8.912C17.837 8.857 17.81 8.682 17.776 8.605C17.776 8.578 17.788 8.573 17.81 8.578C17.8213 8.57933 17.8303 8.58833 17.837 8.605C17.875 8.693 17.902 8.78 17.919 8.879C17.919 8.895 17.929 8.906 17.941 8.923C17.99 8.977 18.006 9.032 17.99 9.059" fill="#250E08"/>
<path d="M15.95 8.682L15.436 8.627C15.4216 8.62726 15.4078 8.63317 15.3977 8.64346C15.3876 8.65374 15.382 8.66758 15.382 8.682C15.376 8.714 15.398 8.736 15.425 8.742L15.945 8.796C15.9522 8.79613 15.9593 8.79483 15.9659 8.79218C15.9726 8.78952 15.9787 8.78557 15.9838 8.78054C15.9889 8.77551 15.993 8.76952 15.9958 8.7629C15.9985 8.75628 16 8.74917 16 8.742C16.0003 8.73112 15.9977 8.72035 15.9925 8.71084C15.9872 8.70133 15.9794 8.69343 15.97 8.688L15.95 8.682ZM16.393 8.742C16.633 8.742 16.667 9.015 16.557 9.179C16.4758 9.14694 16.4044 9.09419 16.35 9.026C16.3765 8.99269 16.3947 8.95359 16.4033 8.91188C16.4118 8.87017 16.4103 8.82703 16.399 8.786V8.742H16.393Z" fill="#E6D1CC"/>
<path d="M16.399 8.785C16.4095 8.8265 16.41 8.86991 16.4004 8.91163C16.3909 8.95336 16.3715 8.99222 16.344 9.025C16.2937 9.08719 16.2246 9.1314 16.147 9.151C15.967 9.18833 15.8083 9.267 15.671 9.387C15.617 9.43 15.606 9.419 15.617 9.354C15.6462 9.23398 15.7046 9.12302 15.787 9.031L15.788 9.021C15.788 9.01633 15.7873 9.01233 15.786 9.009L15.776 8.999C15.7579 8.98922 15.7375 8.98469 15.717 8.98593C15.6965 8.98717 15.6767 8.99412 15.66 9.006C15.6466 9.01521 15.6356 9.02757 15.628 9.042C15.6167 9.06279 15.6018 9.08141 15.584 9.097C15.573 9.059 15.562 9.042 15.534 9.031C15.556 8.834 15.819 8.84 15.944 8.9C16.076 8.96 16.284 8.976 16.322 8.78C16.322 8.769 16.332 8.763 16.344 8.758C16.354 8.752 16.378 8.758 16.399 8.785Z" fill="#BC7573"/>
<path d="M15.278 9.059L15.24 9.545C15.24 9.605 15.202 9.633 15.147 9.627C13.933 9.517 12.719 9.72 11.631 10.289C10.9224 10.6563 10.3243 11.2054 9.89797 11.88C9.37725 12.6565 9.12378 13.5815 9.17597 14.515C9.21597 15.213 9.45097 15.885 9.85397 16.457C10.007 16.697 10.182 16.916 10.379 17.124L10.767 17.474C11.6968 18.2882 12.8737 18.7655 14.108 18.829C15.2139 18.864 16.2997 18.5274 17.192 17.873L17.652 17.495C17.761 17.408 17.87 17.293 17.979 17.167C18.2423 16.8557 18.4613 16.533 18.636 16.199C19.0364 15.4822 19.2247 14.6663 19.179 13.8466C19.1333 13.0268 18.8555 12.2369 18.378 11.569C18.0578 11.0712 17.6397 10.6438 17.149 10.3129C16.6583 9.98195 16.1054 9.75436 15.524 9.644C15.5121 9.63792 15.5026 9.62807 15.497 9.616V9.594L15.584 9.086C15.6018 9.07041 15.6167 9.05179 15.628 9.031C15.6462 9.00516 15.6739 8.98755 15.705 8.982C15.7289 8.977 15.7538 8.98091 15.775 8.993L15.781 9.003L15.786 9.014V9.026L15.781 9.036C15.7051 9.1274 15.6492 9.23368 15.617 9.348C15.607 9.414 15.617 9.425 15.672 9.381C15.8086 9.26167 15.9673 9.18333 16.148 9.146C16.228 9.12889 16.2994 9.08431 16.35 9.02C16.3893 9.076 16.4586 9.129 16.558 9.179C16.744 9.381 16.93 9.551 17.11 9.699C17.29 9.841 17.52 10.01 17.788 10.196C17.853 10.273 18.006 10.42 18.248 10.65C18.466 10.857 18.701 11.142 18.948 11.492C19.31 12.014 19.518 12.628 19.548 13.263C19.6012 14.0271 19.4896 14.7937 19.221 15.511C18.8901 16.4945 18.2778 17.3593 17.46 17.998C16.831 18.4832 16.0904 18.803 15.306 18.928C14.2027 19.1153 13.0693 19.002 12.025 18.6C11.4321 18.3802 10.8824 18.058 10.401 17.648C9.83822 17.1814 9.38947 16.5924 9.08897 15.926C8.75263 15.1525 8.62604 14.304 8.72197 13.466C8.77067 12.7662 9.01064 12.0931 9.4157 11.5204C9.82076 10.9476 10.3754 10.4971 11.019 10.218C11.582 9.961 12.162 9.78 12.741 9.594C13.233 9.436 13.709 9.25 14.196 9.07L14.386 9.02C14.4517 9.00384 14.5146 8.97824 14.573 8.944L14.791 9.02C14.9313 9.07079 15.0546 9.15981 15.147 9.277L15.158 9.288H15.174L15.191 9.278L15.196 9.261C15.2061 9.17761 15.1951 9.09301 15.164 9.015C15.131 8.933 15.158 8.905 15.234 8.938C15.2573 8.944 15.272 8.98233 15.278 9.053V9.059Z" fill="#AE918B"/>
<path d="M15.37 8.993C15.4212 9.0186 15.4778 9.03163 15.535 9.031C15.562 9.042 15.573 9.059 15.584 9.091L15.496 9.6C15.4952 9.60675 15.4957 9.6136 15.4976 9.62013C15.4995 9.62667 15.5027 9.63275 15.507 9.638C15.5157 9.65 15.5267 9.65733 15.54 9.66C16.1188 9.77031 16.6692 9.99679 17.158 10.3258C17.6468 10.6547 18.0639 11.0794 18.384 11.574C18.3737 11.5875 18.3603 11.5984 18.3451 11.6058C18.3298 11.6133 18.313 11.6171 18.296 11.617C18.2903 11.6175 18.285 11.6199 18.281 11.624C18.2769 11.628 18.2745 11.6333 18.274 11.639C18.259 11.689 18.2572 11.7421 18.269 11.793C18.362 12.093 18.198 12.393 17.957 12.558C17.8146 12.6544 17.6516 12.716 17.481 12.738C17.118 12.7901 16.7478 12.7583 16.399 12.645L16.119 12.553C15.8631 12.4812 15.6042 12.4208 15.343 12.372C15.2763 12.3606 15.2082 12.3589 15.141 12.367C14.6055 12.435 14.09 12.6134 13.627 12.891C13.1623 13.161 12.6883 13.4127 12.205 13.646C11.986 13.744 11.768 13.783 11.543 13.854C11.5293 13.8581 11.515 13.8593 11.5008 13.8574C11.4867 13.8555 11.4731 13.8506 11.461 13.843C11.092 13.6316 10.6916 13.4803 10.275 13.395C10.2594 13.3929 10.2446 13.3866 10.2322 13.377C10.2197 13.3673 10.21 13.3546 10.204 13.34C10.0988 13.1345 10.0215 12.9159 9.974 12.69C9.94079 12.4853 9.93541 12.2771 9.958 12.071C9.958 12.028 9.941 11.989 9.903 11.967C9.89816 11.9634 9.89452 11.9584 9.89256 11.9527C9.8906 11.947 9.8904 11.9408 9.892 11.935V11.88C10.3207 11.2064 10.9209 10.659 11.631 10.294C12.7139 9.73646 13.9352 9.50478 15.147 9.627C15.2017 9.63233 15.2327 9.605 15.24 9.545L15.278 9.059C15.3007 9.00433 15.3317 8.98233 15.371 8.993" fill="#250E08"/>
<path d="M18.941 9.12399L19.089 9.54499C19.127 9.65499 19.188 9.78499 19.275 9.94499C19.526 10.42 19.735 10.955 19.893 11.541C19.9577 11.777 19.9867 11.9883 19.98 12.175L19.587 11.333C19.3894 10.9572 19.1448 10.608 18.859 10.294L18.876 10.261L18.991 10.125C18.9975 10.1163 19.001 10.1058 19.001 10.095C19.001 10.0842 18.9975 10.0736 18.991 10.065L18.477 9.52899C18.4877 9.50033 18.504 9.49666 18.526 9.51799C18.5384 9.53151 18.5556 9.5396 18.574 9.54054C18.5923 9.54147 18.6103 9.53517 18.624 9.52299C18.744 9.42499 18.854 9.28799 18.941 9.12399Z" fill="#774C46"/>
<path d="M5.93797 15.5C5.64473 14.7619 5.41262 14.0011 5.24397 13.225C5.19397 13.0077 5.09564 12.4757 4.94897 11.629C5.07397 11.683 5.18897 11.683 5.29897 11.645C5.57197 11.535 5.63797 11.246 5.47397 11C5.47173 10.9964 5.471 10.9921 5.47194 10.988C5.47287 10.9838 5.4754 10.9803 5.47897 10.978L5.48997 10.973C5.5034 10.972 5.51679 10.9755 5.52797 10.983C5.73097 11.148 5.96597 11.279 6.21797 11.279C6.51797 11.279 6.70897 11.076 6.85697 10.803C7.01697 10.525 7.18297 10.25 7.35497 9.978H7.35997C7.37131 9.984 7.37497 9.993 7.37097 10.005C7.2902 10.834 7.06622 11.6426 6.70897 12.395C6.70067 12.4117 6.6972 12.4304 6.69897 12.449C6.70489 12.5003 6.70081 12.5522 6.68697 12.602L6.50697 12.919C6.22405 13.4054 6.06441 13.9537 6.04197 14.516C6.03697 14.642 6.12397 14.68 6.22197 14.702C6.24997 14.702 6.26097 14.724 6.25597 14.756C6.20097 15.03 6.09697 15.221 5.93797 15.5Z" fill="#683B36"/>
<path d="M18.383 11.574C18.8589 12.2431 19.1347 13.0338 19.1782 13.8538C19.2218 14.6737 19.0313 15.4892 18.629 16.205C18.574 16.184 18.569 16.118 18.596 16.003C18.695 15.62 18.618 15.331 18.492 14.981C18.448 14.8543 18.3606 14.8177 18.23 14.871C18.1665 14.8993 18.1062 14.9342 18.05 14.975C17.459 15.413 16.885 15.855 16.25 16.244C15.786 16.523 15.211 16.758 14.676 16.801C14.2026 16.8357 13.7269 16.786 13.271 16.654C12.5133 16.4008 11.8127 16.0012 11.209 15.478L10.356 14.768C10.2737 14.6966 10.1792 14.6407 10.077 14.603C10.034 14.593 10.007 14.603 9.98397 14.642C9.93731 14.7487 9.90464 14.8597 9.88597 14.975C9.82232 15.2882 9.80748 15.6093 9.84197 15.927C9.85931 16.059 9.87397 16.192 9.88597 16.326C9.90597 16.3573 9.91497 16.392 9.91297 16.43C9.91297 16.451 9.89097 16.462 9.85897 16.457C9.45394 15.8867 9.21697 15.2142 9.17497 14.516C9.12256 13.5822 9.37604 12.6568 9.89697 11.88L9.89097 11.935C9.89097 11.946 9.89097 11.962 9.90797 11.968C9.94097 11.99 9.96297 12.023 9.95797 12.078C9.93499 12.2797 9.94003 12.4836 9.97297 12.684C10.021 12.9133 10.0976 13.132 10.203 13.34C10.22 13.368 10.241 13.39 10.274 13.395C10.705 13.482 11.119 13.639 11.499 13.86L11.543 13.854C11.762 13.784 11.986 13.745 12.204 13.647C12.564 13.495 12.9106 13.3163 13.244 13.111L13.626 12.891C14.0901 12.616 14.6051 12.4378 15.14 12.367C15.2074 12.3571 15.2761 12.3588 15.343 12.372C15.701 12.4387 16.0526 12.53 16.398 12.646C16.7478 12.756 17.1175 12.7878 17.481 12.739C17.651 12.717 17.8093 12.657 17.956 12.559C18.196 12.394 18.361 12.094 18.268 11.793C18.2547 11.7428 18.2547 11.6901 18.268 11.64C18.273 11.629 18.285 11.618 18.295 11.618C18.312 11.618 18.3289 11.614 18.3442 11.6064C18.3594 11.5987 18.3727 11.5877 18.383 11.574Z" fill="#3C1A18"/>
<path d="M20.467 13.526L20.439 14.139C20.439 14.155 20.439 14.166 20.423 14.172L20.401 14.182C20.391 14.182 20.391 14.172 20.391 14.161C20.391 13.941 20.423 13.734 20.467 13.526Z" fill="#826158"/>
<path d="M20.106 13.783C20.106 14.123 20.04 14.45 19.996 14.773C19.8465 16.0574 19.3172 17.268 18.476 18.25C17.7847 19.0524 16.9313 19.6992 15.972 20.148C14.966 20.623 13.905 20.694 12.812 20.668C12.1211 20.65 11.4347 20.5506 10.767 20.372C10.5435 20.3142 10.3244 20.241 10.111 20.153C9.17675 19.767 8.33717 19.1833 7.65 18.442C7.03804 17.765 6.54963 16.9858 6.207 16.14C6.32659 16.0778 6.43238 15.9921 6.518 15.888C6.578 15.812 6.633 15.735 6.682 15.648C6.748 15.735 6.792 15.834 6.83 15.932C6.97667 16.3587 7.148 16.7633 7.344 17.146C7.592 17.665 8 18.091 8.508 18.36C8.74933 18.4747 9.012 18.5567 9.296 18.606C9.624 18.66 9.941 18.716 10.258 18.786C10.723 18.885 11.133 19.131 11.56 19.333C12.2 19.639 12.883 19.803 13.604 19.814C14.2795 19.8614 14.9575 19.7678 15.5948 19.539C16.2322 19.3102 16.8149 18.9512 17.306 18.485C18.1208 17.7393 18.8064 16.8638 19.335 15.894C19.6137 15.3733 19.814 14.812 19.936 14.21C19.9527 14.144 19.98 14.0727 20.018 13.996C20.0554 13.9286 20.085 13.8571 20.106 13.783Z" fill="#CBB2AD"/>
<path d="M20.39 14.318L20.314 14.942C20.3134 14.9906 20.3039 15.0388 20.286 15.084C20.0934 16.3622 19.5373 17.558 18.684 18.529C17.9414 19.3846 17.0191 20.0658 15.983 20.524C15.4633 20.7658 14.9038 20.9105 14.332 20.951C14.332 20.94 14.315 20.94 14.293 20.94L14.95 20.83C15.125 20.803 15.343 20.743 15.617 20.639C16.4902 20.3025 17.2957 19.8117 17.995 19.19C18.17 19.037 18.329 18.862 18.498 18.698L18.678 18.501C19.6042 17.4241 20.1756 16.0876 20.314 14.674C20.3147 14.5533 20.34 14.4347 20.39 14.318Z" fill="#826158"/>
<path d="M18.63 16.206C18.3731 16.6876 18.0405 17.1248 17.645 17.501C17.6183 17.5077 17.6056 17.4913 17.607 17.452L17.623 17.397C17.734 17.234 17.798 17.043 17.809 16.845C17.826 16.687 17.733 16.567 17.618 16.474C17.5704 16.4351 17.5113 16.4129 17.4498 16.4109C17.3884 16.409 17.328 16.4273 17.278 16.463C16.5672 16.938 15.7645 17.2582 14.922 17.403C14.725 17.441 14.522 17.453 14.321 17.463C13.5086 17.4966 12.7007 17.3275 11.97 16.971C11.537 16.769 11.084 16.511 10.592 16.189C10.4 16.063 10.127 16.079 10.154 16.392C10.1653 16.5347 10.1983 16.653 10.253 16.747L10.46 17.102C10.471 17.119 10.466 17.124 10.45 17.13L10.378 17.124C10.1819 16.9191 10.0061 16.6957 9.85298 16.457C9.89198 16.463 9.90798 16.457 9.91298 16.43C9.9177 16.3913 9.90809 16.3521 9.88598 16.32C9.7922 15.8766 9.7922 15.4184 9.88598 14.975C9.90298 14.855 9.94098 14.745 9.98498 14.647C10.007 14.604 10.039 14.593 10.072 14.604C10.1762 14.6407 10.2729 14.6963 10.357 14.768L11.21 15.478C11.8131 16.001 12.513 16.4006 13.27 16.654C13.714 16.791 14.184 16.834 14.676 16.802C15.212 16.758 15.786 16.528 16.251 16.244C16.885 15.861 17.454 15.418 18.055 14.975C18.1096 14.9345 18.1683 14.8996 18.23 14.871C18.3613 14.8177 18.449 14.8543 18.493 14.981C18.618 15.331 18.695 15.615 18.602 16.003C18.57 16.1143 18.58 16.182 18.63 16.206Z" fill="#4E1E1E"/>
<path d="M17.651 17.502L17.191 17.879C17.1459 17.8293 17.0902 17.7904 17.028 17.765C16.9011 17.7366 16.769 17.7421 16.645 17.781C16.361 17.851 16.065 17.907 15.77 17.945C15.2933 18.0103 14.816 18.0687 14.338 18.12C13.928 18.1587 13.4577 18.162 12.927 18.13C12.2599 18.0802 11.6111 17.8886 11.024 17.568L10.86 17.513C10.8471 17.5062 10.8358 17.4966 10.827 17.485C10.817 17.464 10.794 17.464 10.772 17.475L10.379 17.125C10.406 17.13 10.434 17.135 10.45 17.13C10.4673 17.13 10.471 17.121 10.461 17.103L10.253 16.747C10.1962 16.6367 10.1628 16.5158 10.155 16.392C10.127 16.08 10.406 16.064 10.592 16.19C11.084 16.512 11.543 16.77 11.97 16.977C12.7012 17.3318 13.5091 17.4991 14.321 17.464C14.523 17.447 14.726 17.442 14.922 17.409C15.7649 17.2611 16.5677 16.9389 17.279 16.463C17.3289 16.4271 17.3892 16.4086 17.4507 16.4105C17.5121 16.4123 17.5713 16.4342 17.619 16.473C17.728 16.567 17.826 16.693 17.809 16.846C17.7991 17.0453 17.7351 17.2382 17.624 17.404C17.6133 17.42 17.6073 17.4387 17.607 17.458C17.607 17.491 17.618 17.508 17.651 17.502Z" fill="#683B36"/>
<path d="M10.767 17.474C10.794 17.464 10.817 17.464 10.827 17.484L10.866 17.512L11.03 17.567C11.614 17.8901 12.2613 18.0822 12.927 18.13C13.3965 18.1635 13.868 18.1602 14.337 18.12C14.8163 18.068 15.294 18.0093 15.77 17.944C16.065 17.906 16.36 17.851 16.645 17.78C16.776 17.747 16.918 17.725 17.028 17.764C17.077 17.774 17.132 17.818 17.192 17.879C16.5309 18.3723 15.7527 18.6848 14.934 18.786C14.662 18.8194 14.388 18.8341 14.114 18.83C12.8803 18.7679 11.7035 18.2924 10.773 17.48L10.767 17.474Z" fill="#7E4140"/>
<path d="M12.276 20.984C11.8952 20.9564 11.5169 20.9016 11.144 20.82C11.2099 20.8155 11.276 20.8192 11.341 20.831L11.527 20.864C11.571 20.864 11.609 20.875 11.653 20.886L11.778 20.908C11.9406 20.9087 12.1066 20.934 12.276 20.984Z" fill="#826158"/>
<path d="M14.294 20.94C14.316 20.94 14.332 20.94 14.338 20.951C14.2615 20.9798 14.1791 20.9894 14.098 20.979C14.1595 20.9511 14.2265 20.9378 14.294 20.94Z" fill="#AE918B"/>
</svg>
